<?xml version="1.0" encoding="utf-8"?>
<!-- Generator: Adobe Illustrator 16.0.0, SVG Export Plug-In . SVG Version: 6.00 Build 0)  -->
<!DOCTYPE svg PUBLIC "-//W3C//DTD SVG 1.1//EN" "http://www.w3.org/Graphics/SVG/1.1/DTD/svg11.dtd">
<svg version="1.1" id="Layer_1" xmlns="http://www.w3.org/2000/svg" xmlns:xlink="http://www.w3.org/1999/xlink" x="0px" y="0px"
	 width="208.969px" height="211.203px" viewBox="0 0 208.969 211.203" enable-background="new 0 0 208.969 211.203"
	 xml:space="preserve">
<g>
	<defs>
		<circle id="SVGID_1_" cx="102.059" cy="104.897" r="102.709"/>
	</defs>
	<clipPath id="SVGID_2_">
		<use xlink:href="#SVGID_1_"  overflow="visible"/>
	</clipPath>
	<g clip-path="url(#SVGID_2_)">
		<path fill="#ACA9A8" d="M86.863,38.1c0,0,7.387,9.957,31.156,13.169c0,0,9.956,2.248,13.169,14.132
			c0,0,4.495,11.562,10.919,12.205c0,0,6.746,16.06-22.161,40.792c0,0-1.927,16.38,19.592,19.912c0,0,20.235-6.102,23.447-16.379
			c0,0-5.733-17.931-3.533-39.186c0,0,12.878-74.516-57.96-71.946c0,0-18.482,0.963-20.088,10.278c0,0-33.319,5.897-29.859,51.915
			c0,0,5.19,21.971-2.581,48.618c0,0,26.016,39.505,40.148-4.176c0,0-34.046-31.477-15.096-57.172
			C74.016,60.262,91.681,44.202,86.863,38.1z"/>
		<path fill="#ACA9A8" d="M67.245,144.711c0,0,35.01,74.837,69.698,0c0,0,42.396,13.491,49.784,29.229
			c0,0,31.156,51.39-26.338,58.777c-57.491,7.388-1.283,0-1.283,0L15.535,216.979c0,0-15.928-34.733,21.65-58.181L67.245,144.711z"
			/>
	</g>
</g>
<path fill="#ACA9A8" d="M102.059,209.795c-57.84,0-104.897-47.057-104.897-104.898C-2.838,47.057,44.219,0,102.059,0
	C159.9,0,206.956,47.057,206.956,104.897C206.956,162.738,159.9,209.795,102.059,209.795z M102.059,4.438
	C46.667,4.438,1.6,49.504,1.6,104.897s45.066,100.459,100.459,100.459c55.394,0,100.46-45.066,100.46-100.459
	S157.453,4.438,102.059,4.438z"/>
</svg>
