<?xml version="1.0" encoding="UTF-8" standalone="no"?>
<!-- Created with Inkscape (http://www.inkscape.org/) -->

<svg
   xmlns:dc="http://purl.org/dc/elements/1.1/"
   xmlns:cc="http://creativecommons.org/ns#"
   xmlns:rdf="http://www.w3.org/1999/02/22-rdf-syntax-ns#"
   xmlns:svg="http://www.w3.org/2000/svg"
   xmlns="http://www.w3.org/2000/svg"
   xmlns:sodipodi="http://sodipodi.sourceforge.net/DTD/sodipodi-0.dtd"
   xmlns:inkscape="http://www.inkscape.org/namespaces/inkscape"
   width="1052.3622"
   height="744.09448"
   id="svg2"
   sodipodi:version="0.32"
   inkscape:version="0.47 r22583"
   version="1.0"
   sodipodi:docname="Group_of_People_01.svg"
   inkscape:output_extension="org.inkscape.output.svg.inkscape">
  <defs
     id="defs4">
    <inkscape:perspective
       sodipodi:type="inkscape:persp3d"
       inkscape:vp_x="0 : 526.18109 : 1"
       inkscape:vp_y="0 : 1000 : 0"
       inkscape:vp_z="744.09448 : 526.18109 : 1"
       inkscape:persp3d-origin="372.04724 : 350.78739 : 1"
       id="perspective10" />
    <inkscape:perspective
       id="perspective2447"
       inkscape:persp3d-origin="372.04724 : 350.78739 : 1"
       inkscape:vp_z="744.09448 : 526.18109 : 1"
       inkscape:vp_y="0 : 1000 : 0"
       inkscape:vp_x="0 : 526.18109 : 1"
       sodipodi:type="inkscape:persp3d" />
  </defs>
  <sodipodi:namedview
     id="base"
     pagecolor="#ffffff"
     bordercolor="#666666"
     borderopacity="1.0"
     inkscape:pageopacity="0.0"
     inkscape:pageshadow="2"
     inkscape:zoom="0.91875"
     inkscape:cx="492.27744"
     inkscape:cy="375.86502"
     inkscape:document-units="px"
     inkscape:current-layer="layer1"
     showgrid="false"
     inkscape:window-width="1527"
     inkscape:window-height="984"
     inkscape:window-x="2082"
     inkscape:window-y="15"
     inkscape:window-maximized="0" />
  <metadata
     id="metadata7">
    <rdf:RDF>
      <cc:Work
         rdf:about="">
        <dc:format>image/svg+xml</dc:format>
        <dc:type
           rdf:resource="http://purl.org/dc/dcmitype/StillImage" />
        <dc:title></dc:title>
      </cc:Work>
    </rdf:RDF>
  </metadata>
  <g
     inkscape:label="Calque 1"
     inkscape:groupmode="layer"
     id="layer1">
    <text
       xml:space="preserve"
       style="font-size:40px;font-style:normal;font-weight:normal;fill:#000000;fill-opacity:1;stroke:none;stroke-width:1px;stroke-linecap:butt;stroke-linejoin:miter;stroke-opacity:1;font-family:Bitstream Vera Sans"
       x="-93.605438"
       y="321.78156"
       id="text2496"><tspan
         sodipodi:role="line"
         id="tspan2498"
         x="-93.605438"
         y="321.78156" /></text>
    <path
       style="fill:none;stroke:#000000;stroke-width:2;stroke-linecap:butt;stroke-linejoin:miter;stroke-opacity:1;stroke-miterlimit:4;stroke-dasharray:none"
       d="m 99.047621,651.57747 c 1.467399,-3.8806 1.088439,-18.52547 1.088439,-27.21088 0,-11.41385 -1.088439,-22.71929 -1.088439,-32.65306 0,-3.41387 -1.068451,-4.31378 -2.176871,-6.53061 0,-7.90513 -10.87225,-22.80873 -13.061224,-31.56463 -2.044099,-8.1764 2.527853,-17.73046 4.353741,-25.03401 1.889842,-7.55937 2.176871,-15.23514 2.176871,-23.94558 0,-9.43311 0,-18.86622 0,-28.29932 0,-8.7297 -1.088435,-16.23609 -1.088435,-25.03402 0,-8.42206 -4.648149,-14.23885 -6.530612,-21.7687 -1.645016,-6.58006 -1.088436,-13.72047 -1.088436,-20.68028 0,-1.08843 0,-2.17687 0,-3.2653"
       id="path2453" />
    <path
       style="fill:none;stroke:#000000;stroke-width:2;stroke-linecap:butt;stroke-linejoin:miter;stroke-opacity:1;stroke-miterlimit:4;stroke-dasharray:none"
       d="m 72.925172,381.6455 c -1.366712,-0.68336 4.644617,-17.99672 8.707483,-26.12245 2.075394,-4.15079 12.048971,-8.72653 16.326531,-9.79592 7.987834,-1.99696 10.293054,-2.674 16.326534,-8.70748 3.00461,-3.00461 0.56102,-0.84153 2.17687,-3.26531 0.28343,-0.28343 -7.25704,-18.1438 -7.61905,-19.59183 -1.81654,-7.26618 -5.44218,-10.73076 -5.44218,-18.5034 0,-8.42655 0.77056,-13.64868 2.17687,-20.68028 1.41927,-7.09631 1.35607,-1.01705 4.35375,-3.2653 2.41186,-12.0593 18.73948,-10.88436 25.03401,-10.88436 8.76013,0 19.06122,0.55783 23.94558,5.44218 2.05528,2.05528 4.21002,7.0646 5.44218,8.70748 5.64469,5.64469 6.53061,28.1875 6.53061,35.91837 0,9.99624 -3.83478,12.0233 -7.61905,19.59184 -1.07911,2.15821 -1.64974,1.64974 -3.26531,3.2653 -3.78582,7.57164 25.25564,20.76892 30.47619,22.85715 5.3318,2.13271 11.988,8.72269 15.2381,11.97279 3.34135,3.34135 3.26531,12.71763 3.26531,18.5034 0,5.43434 1.15238,2.04897 -1.08844,6.53061 0,2.45767 -13.04817,13.04817 -14.14966,14.14966 0,16.02825 3.86566,28.71177 9.79592,43.53741 3.00896,7.52241 2.17687,15.60011 2.17687,23.94558 0,7.61905 0,15.2381 0,22.85715 0,1.45124 0,2.90249 0,4.35374 0,2.86911 -21.40028,11.78857 -23.94558,13.06122 -8.08908,4.04454 -7.91536,14.2465 -9.79592,21.76871 -1.48609,5.94437 0,14.51162 0,20.68027 0,4.19064 1.08844,8.7288 1.08844,14.14966 0,11.16931 4.35374,23.68005 4.35374,35.91837 0,10.22649 0.86877,21.97849 3.26531,31.56462 2.82795,11.3118 7.31297,20.54443 9.79591,30.47619 2.02633,8.10531 -7.09525,9.39287 -13.06122,10.88436 -2.94124,0.73531 -9.95116,-6.06402 -13.06122,-7.61905 -7.55443,-3.77721 -14.32312,-9.66438 -18.50341,-15.23809 -2.10088,-2.80118 5.44218,-19.09021 5.44218,-23.94558 0,-9.30362 1.08844,-17.88074 1.08844,-27.21089 0,-7.04103 -1.04107,-12.82438 -2.17687,-18.5034 -1.03535,-5.17671 -3.19358,-10.5257 -4.35375,-16.32653 -1.03612,-5.18063 -3.12756,-10.19563 -4.35374,-16.32653 -2.59178,-12.95893 -3.2653,4.0151 -3.2653,8.70748 0,7.25624 0,14.51248 0,21.76871 0,5.17985 -9.13674,10.22517 -10.88436,11.97279 -5.75086,5.75087 -3.2653,17.36426 -3.2653,25.03401 0,10.85043 -0.49483,19.98743 3.2653,29.38776 3.33194,8.32985 7.52146,13.36145 10.88436,21.76871 3.38364,8.45911 5.41662,13.06761 -3.26531,15.23809 -6.35796,1.58949 -13.53329,1.51464 -19.59184,0 -5.96998,-1.49249 -9.51754,-11.41603 -11.97279,-16.32653 -3.4677,-6.9354 -7.619045,-8.36398 -7.619045,-17.41497 0,-4.23504 0.170665,-7.21327 1.088435,-10.88435"
       id="path2457" />
    <path
       style="fill:none;stroke:#000000;stroke-width:2;stroke-linecap:butt;stroke-linejoin:miter;stroke-opacity:1;stroke-miterlimit:4;stroke-dasharray:none"
       d="m 188.29932,679.87679 c 0,-8.53957 1.62317,17.39599 5.44218,25.03402 3.6941,7.3882 4.59495,7.67935 13.06123,9.79592 8.53619,2.13404 11.48494,4.99173 19.59183,-1.08844 4.8427,-3.63202 10.69039,-9.15472 11.97279,-9.79592 4.68013,-2.34006 7.93029,7.6813 13.06123,8.70748 6.20216,1.24044 17.8447,1.08844 20.68027,1.08844 3.58795,0 2.17687,-16.73418 2.17687,-19.59184 0,-9.37845 4.08463,-14.78957 7.61905,-20.68027 3.51272,-5.85454 5.44217,-5.59292 5.44217,-15.23809 0,-6.72507 -2.07776,-12.6648 -3.2653,-17.41497 -1.91272,-7.65086 1.08843,-16.64055 1.08843,-23.94558 0,-7.97775 5.18202,-22.33682 8.70749,-29.38775 4.07594,-8.15189 2.17687,-20.39812 2.17687,-29.38776 0,-8.52448 0.86975,-17.41746 -2.17687,-25.03401 -3.48342,-8.70853 -6.60222,-16.46974 -9.79592,-22.85715 -1.37058,-2.74116 -14.42622,-6.59975 -18.5034,-7.61904 -7.87078,-1.9677 -8.83657,-6.27244 -5.44218,-13.06123 3.29693,-6.59385 5.09575,-13.50596 6.53061,-20.68027 1.8023,-9.0115 -1.13193,-14.32363 -3.26531,-22.85714 -1.27762,-5.11051 -5.15335,-9.77363 -7.61904,-13.06123 -3.93531,-5.24707 -6.51156,-8.70748 -15.2381,-8.70748 -8.93539,0 -10.41412,1.39754 -16.32653,4.35374 -8.07514,4.03757 -7.88014,3.7875 -11.97279,11.97279 -2.793,5.586 -5.977,6.49304 -7.61905,13.06123 -1.27463,5.09854 -0.2892,10.81596 1.08844,16.32653 1.19556,4.78224 6.07435,10.14772 7.61905,16.32653 1.86442,7.45769 2.02144,7.19139 -4.35374,11.97279 -2.92738,2.19553 -4.55386,2.5771 -6.53062,6.53061"
       id="path2459" />
    <path
       style="fill:none;stroke:#000000;stroke-width:2;stroke-linecap:butt;stroke-linejoin:miter;stroke-opacity:1;stroke-miterlimit:4;stroke-dasharray:none"
       d="m 268.84354,704.91081 c -1.867,1.40025 3.89416,13.53286 7.61905,16.32653 4.66508,3.49881 8.50411,4.35374 15.23809,4.35374 10.42314,0 16.88819,-2.24662 19.59184,-13.06123 0.39353,-1.57409 1.45125,-2.90249 2.17687,-4.35374 1.99467,-3.98933 11.8616,-10.80096 11.97279,-10.88435 4.28548,-3.21411 3.83118,10.36179 7.61905,14.14966 5.53231,5.53231 12.10462,8.76022 17.41496,10.88435 9.455,3.782 16.276,-1.34791 23.94558,-3.2653 10.82783,-2.70696 10.88436,-12.86584 10.88436,-22.85715 0,-9.4331 0,-18.86621 0,-28.29932 0,-8.1003 2.44961,-15.24063 4.35374,-22.85714 1.2347,-4.93879 1.08843,-11.10569 1.08843,-17.41496 0,-7.40968 2.25903,-12.13711 5.44218,-18.50341 3.94314,-7.88628 4.35374,-6.90696 4.35374,-16.32653 0,-6.37244 -4.81112,-12.02779 -6.53061,-16.32653 -0.19056,-0.47639 -0.72562,-0.72562 -1.08844,-1.08843 -4.7369,-4.73691 -6.75075,-15.45824 -11.97278,-20.68027 -1.08844,-1.08844 -2.17688,-2.17688 -3.26531,-3.26531 -5.71049,-5.71049 -14.14966,-10.75824 -14.14966,-18.5034 0,-5.21635 4.27459,-10.56776 5.44218,-15.2381 1.68745,-6.74981 -0.29837,-14.7464 -3.26531,-20.68027 -2.51466,-5.02932 -7.12993,-11.29422 -8.70748,-15.23809 -2.0765,-5.19125 -9.99809,-6.61149 -15.2381,-8.70749 -5.87991,-2.35196 -11.01521,0.0327 -15.23809,1.08844 -4.17435,1.04358 -10.11688,9.34939 -11.97279,13.06122 -2.62967,5.25933 -4.23133,11.48313 -5.44218,16.32653 -2.05654,8.22614 -4.35374,12.2811 -4.35374,21.76871 0,9.03807 6.41532,7.84962 2.17687,16.32653 -3.17244,6.34488 -5.35298,9.31418 -9.79592,15.2381"
       id="path2461" />
    <path
       style="fill:none;stroke:#000000;stroke-width:2;stroke-linecap:butt;stroke-linejoin:miter;stroke-opacity:1;stroke-miterlimit:4;stroke-dasharray:none"
       d="m 389.65987,675.52305 c -0.17271,0.34542 5.44217,19.65159 5.44217,26.12245 0,10.25381 1.3446,12.64509 8.70749,16.32653 7.45217,3.72609 15.58128,2.5495 22.85714,-1.08843 8.95819,-4.4791 13.06652,-9.80652 17.41497,-18.50341 4.62885,-9.25771 3.99296,-14.05946 8.70748,-15.23809 6.8342,-1.70855 6.33716,13.18825 11.97279,17.41497 6.96704,5.22528 10.79097,6.53061 19.59184,6.53061 8.6807,0 13.80566,-0.74445 19.59183,-6.53061 2.84254,-2.84254 -2.17687,-17.01347 -2.17687,-20.68028 0,-8.4372 -1.73006,-18.69822 -5.44218,-26.12245 -3.46396,-6.92792 -5.71685,-15.38057 -8.70748,-22.85714 -2.00435,-5.01088 -1.99488,-13.42171 -3.2653,-18.5034 -2.1216,-8.48639 -4.46514,-13.5068 -6.53062,-21.76871 -1.62387,-6.49547 1.08844,-13.34352 1.08844,-19.59183 0,-8.53295 0.68479,-15.39676 2.17687,-22.85715 1.3355,-6.67752 5.44218,-12.02089 5.44218,-19.59183 0,-7.03774 -4.28697,-12.79412 -5.44218,-17.41497 -1.96371,-7.85485 -10.50888,-13.77418 -14.14966,-17.41497 -4.80966,-4.80965 -7.03236,-7.72967 -10.88435,-14.14966 -4.96167,-8.26943 -5.44218,-13.8443 -5.44218,-22.85714 0,-8.92534 -9.90809,-23.30581 -11.97279,-31.56462 -0.24856,-0.99426 -11.0971,-4.95115 -13.06122,-5.44218 -9.20024,-2.30006 -15.13493,3.05896 -18.50341,9.79592 -4.35893,8.71786 -6.94188,17.73761 -11.97279,26.12245 -3.78197,6.3033 -2.48535,17.26948 -1.08843,22.85714 1.87223,7.48894 1.0039,12.81113 -3.26531,18.5034 -4.4628,5.95041 -9.95453,6.07664 -11.97279,14.14966 -2.00926,8.03706 -6.05159,15.01987 -7.61904,22.85714 -0.83431,4.17155 -1.08844,7.67448 -1.08844,11.97279"
       id="path2463" />
    <path
       style="fill:none;stroke:#000000;stroke-width:2;stroke-linecap:butt;stroke-linejoin:miter;stroke-opacity:1;stroke-miterlimit:4;stroke-dasharray:none"
       d="m 501.76871,698.38019 c -1.63807,8.19036 16.68146,1.08844 25.03402,1.08844 10.6632,0 8.7257,-4.42665 10.88435,-13.06122 1.85749,-7.42997 8.67366,-8.17172 15.23809,-6.53062 0.32115,0.0803 1.9431,14.79066 5.44218,17.41497 5.06662,3.79996 26.80161,-0.64654 33.7415,1.08843 11.65841,2.91461 14.14966,-2.32824 14.14966,-11.97278 0,-9.72428 -10.96622,-23.02088 -15.2381,-31.56463 -4.33469,-8.66938 -10.88435,-21.38161 -10.88435,-30.47619 0,-9.13723 4.92261,-13.72869 6.53061,-21.76871 2.16941,-10.84706 2.32954,-16.95695 -1.08843,-27.21088 -3.18052,-9.54156 -2.17688,-20.27889 -2.17688,-30.47619 0,-7.58399 -6.82049,-8.99737 -10.88435,-13.06123 -5.69253,-5.69252 2.5008,-6.7379 4.35374,-14.14966 1.33816,-5.35261 5.07162,-10.49056 6.53061,-16.32653 2.80824,-11.23294 4.24207,-15.02418 -3.2653,-25.03401 -1.08844,-1.45125 -2.17687,-2.9025 -3.26531,-4.35374 -3.10281,-4.13708 -11.27044,-3.56022 -15.23809,-4.35374 -7.01491,-1.40299 -14.66011,-4.09852 -22.85715,0 -10.59102,5.29551 -12.31872,16.10292 -16.32653,26.12244 -2.50676,6.26692 -1.08843,15.06515 -1.08843,21.76871 0,4.38227 -15.61863,7.98629 -18.5034,8.70748 -5.56922,1.39231 -8.54193,5.12868 -14.14966,6.53062"
       id="path2465" />
    <path
       style="fill:none;stroke:#000000;stroke-width:2;stroke-linecap:butt;stroke-linejoin:miter;stroke-opacity:1;stroke-miterlimit:4;stroke-dasharray:none"
       d="m 608.43538,685.31897 c -0.58929,0.14732 11.05854,-11.27603 14.14966,1.08844 2.24958,8.99832 4.08486,11.97278 14.14966,11.97278 9.80455,0 13.73907,-0.33892 21.76871,-4.35374 8.55954,-4.27977 10.88435,-12.57834 10.88435,-21.7687 0,-11.79652 -2.27089,6.43659 2.17687,10.88435 6.31735,6.31735 6.66947,9.17063 15.2381,10.88435 6.26275,1.25255 16.3878,1.02717 20.68027,-3.2653 7.25253,-7.25254 7.41802,-13.34554 9.79592,-22.85715 1.82875,-7.31499 2.42747,-14.06362 4.35374,-21.7687 1.50655,-6.02623 0,-14.4334 0,-20.68028 0,-10.29195 3.75477,-9.90542 -1.08844,-19.59183 -2.81517,-5.63035 -2.17687,-12.32667 -2.17687,-19.59184 0,-7.25623 0,-14.51247 0,-21.76871 0,-10.16563 -6.61521,-23.52825 -11.97279,-31.56462 -3.30673,-4.9601 -4.69903,-22.80458 -6.53061,-28.29932 -1.92123,-5.7637 -6.04305,-11.11097 -7.61905,-17.41497 -1.62814,-6.51258 -2.55,-9.45374 -5.44217,-15.23809 -3.70855,-7.41709 -4.35375,-11.7307 -4.35375,-20.68028 0,-7.31307 -1.90928,-11.43761 -4.35374,-16.32653 -2.31727,-4.63454 -6.38475,-7.50965 -10.88435,-10.88435 -6.10323,-4.57742 -12.7415,2.09694 -17.41497,3.26531 -5.32185,1.33046 -11.90029,10.79373 -16.32653,16.32653 -4.74635,5.93294 -4.35374,10.74139 -4.35374,18.5034 0,7.47513 1.08844,14.87058 1.08844,21.76871 0,6.35733 -12.12765,14.35613 -15.2381,18.5034 -4.60665,6.1422 -9.48861,15.71192 -13.06122,22.85714 -4.1731,8.3462 -4.93812,19.28256 -10.88436,27.21088 -3.64591,4.86122 -2.17687,19.53293 -2.17687,26.12245 0,5.83808 3.26531,9.84981 3.26531,17.41497 0,8.39952 4.58664,18.54144 7.61905,26.12245 2.14281,5.35703 0,15.90265 0,21.76871 0,7.42386 0.51938,14.19931 -2.17688,19.59183 -2.56006,5.12012 9.42274,13.13897 11.97279,16.32653 2.30325,2.87907 3.68637,6.10956 10.88436,-1.08843"
       id="path2467" />
    <path
       style="fill:none;stroke:#000000;stroke-width:2;stroke-linecap:butt;stroke-linejoin:miter;stroke-opacity:1;stroke-miterlimit:4;stroke-dasharray:none"
       d="m 712.92517,684.23053 c 4.38388,-4.38387 11.21524,6.53062 17.41497,6.53062 7.37805,0 11.73907,-6.2969 15.2381,-9.79592 1.24345,-1.24346 -1.08844,-17.31836 -1.08844,-20.68027 0,-7.44694 1.08844,-13.34375 1.08844,-20.68028 0,-6.04854 -1.08844,-13.12045 -1.08844,-19.59183 0,-10.35536 8.649,-0.23395 9.79592,4.35374 0.94202,3.76807 1.08843,12.08866 1.08843,18.5034 0,7.95707 5.81296,8.01372 7.61905,15.2381 2.09766,8.39064 1.62703,17.39247 3.26531,23.94557 1.71818,6.87274 8.74813,4.87764 14.14966,2.17687 8.91096,-4.45548 9.96655,-2.11225 11.97279,-14.14966 1.07746,-6.46478 0,-14.11235 0,-20.68027 0,-7.66153 3.95252,-13.34722 6.53061,-18.5034 2.36682,-4.73363 -0.18875,-15.57154 1.08843,-20.68027 1.93102,-7.72407 3.26531,-14.36779 3.26531,-22.85714 0,-7.48425 3.01548,-12.90051 4.35374,-19.59184 1.70674,-8.53369 0.93046,-15.87001 -1.08843,-23.94558 -1.6449,-6.5796 -2.17687,-12.46088 -2.17687,-19.59184 0,-7.8075 -3.27825,-13.61514 -9.79592,-18.5034 -5.43593,-4.07695 -12.11981,-9.56056 -17.41497,-10.88435 -8.20475,-2.05119 0.86541,-10.43831 2.17687,-13.06122 2.63722,-5.27444 1.16454,-12.60458 0,-19.59184 -1.18264,-7.09585 -3.0222,-9.91195 -4.35374,-15.2381 -1.6589,-6.63558 -5.71815,-8.23226 -11.97279,-9.79592 -6.27989,-1.56997 -9.73613,-4.35374 -17.41496,-4.35374 -5.3961,0 -15.30953,9.89116 -18.50341,14.14966 -4.44941,5.93256 -4.35374,12.14483 -4.35374,19.59184 0,8.05831 0.81399,12.51232 3.26531,17.41497 3.02122,6.04244 0.6536,12.40762 -4.35374,17.41496 -3.85069,3.85069 -8.8332,6.78203 -10.88436,10.88436 -1.64423,3.28847 -3.47046,2.08227 -5.44217,3.2653"
       id="path2469" />
    <path
       style="fill:none;stroke:#000000;stroke-width:2;stroke-linecap:butt;stroke-linejoin:miter;stroke-opacity:1;stroke-miterlimit:4;stroke-dasharray:none"
       d="m 804.35375,588.44822 c -3.57329,7.14657 11.12722,11.65195 15.23809,18.5034 4.35505,7.25841 4.32782,15.21218 9.79592,20.68028 6.80286,6.80286 14.814,-3.28412 17.41497,-7.61905 4.23428,-7.05714 4.35374,-12.29152 4.35374,-20.68027 0,-7.7859 1.27489,-9.98238 5.44217,-14.14966 4.80644,-4.80644 3.26531,-12.56048 3.26531,-20.68028 0,-6.94694 -0.70286,-13.83238 2.17687,-19.59183 3.59416,-7.18832 0,-12.4695 0,-19.59184 0,-2.25328 10.7974,-11.62498 11.97279,-16.32653 1.66908,-6.67633 1.57705,-13.92727 3.26531,-20.68027 1.68356,-6.73425 0.48678,-12.20253 -1.08844,-18.5034 -2.06321,-8.25285 -8.27786,-13.72004 -14.14966,-19.59184 -5.52943,-5.52943 -12.93902,-2.66568 -10.88435,-10.88435 1.95074,-7.80296 5.45388,-13.0144 3.2653,-21.76871 -2.54659,-10.18635 -5.87822,-27.08041 -17.41496,-29.38776 -4.1399,-0.82798 -17.53096,11.48657 -20.68028,13.06123 -5.06953,2.53477 -5.16986,12.5166 -7.61904,17.41496 -3.10985,6.2197 -2.74626,15.33879 -4.35374,21.76871 -1.9809,7.92358 3.4712,14.59093 -4.35375,18.5034 -8.4178,4.2089 -13.44465,6.20903 -17.41496,14.14966 -2.75015,5.50031 -1.08844,14.57588 -1.08844,20.68027 0,2.17687 0,4.35375 0,6.53062"
       id="path2471" />
    <path
       style="fill:none;stroke:#000000;stroke-width:2;stroke-linecap:butt;stroke-linejoin:miter;stroke-opacity:1;stroke-miterlimit:4;stroke-dasharray:none"
       d="m 850.06803,630.8972 c 0,2.19448 -8.72969,18.54782 -11.97279,25.03401 -4.09582,8.19165 -4.54027,17.94381 -2.17687,25.03402 3.80996,11.42986 33.89288,-5.59356 17.41497,10.88435 -5.37645,5.37645 -9.84178,7.66491 -15.2381,13.06123 -5.54817,5.54817 -2.37329,8.51106 4.35374,15.23809 7.43464,7.43463 17.82637,-1.6691 22.85715,-5.44217 7.03467,-5.27601 12.76843,-9.50313 17.41496,-14.14966 3.15653,-3.15653 0,-18.71596 0,-23.94558 0,-10.97329 2.84338,-18.99256 5.44218,-29.38776 2.53427,-10.13708 5.13848,-15.46587 14.14966,-8.70748 8.15812,6.11859 9.73678,-2.29514 15.23809,8.70748 3.06136,6.12272 -4.47724,25.89854 -5.44217,32.65306 -1.01753,7.12269 7.61905,10.74302 7.61905,22.85715 0,4.24735 0.93616,12.45212 2.17687,17.41496 1.92381,7.69525 11.28371,7.86374 17.41496,3.26531 8.47042,-6.35281 7.61905,-19.53735 7.61905,-29.38776 0,-7.81801 3.47868,-18.42508 7.61905,-23.94558 4.62957,-6.17276 9.27524,-3.31239 13.06122,-10.88435 3.69986,-7.39972 4.08146,-15.78195 7.61905,-22.85714 5.36728,-10.73456 9.58217,-20.69999 11.97279,-32.65306 2.44455,-12.22278 4.35374,-20.47045 4.35374,-33.7415 0,-10.83961 -2.17687,-19.14577 -2.17687,-29.38775 0,-9.48366 -4.34794,-15.2323 -10.88435,-21.76871 -6.03079,-6.03079 -8.82587,-14.26805 -14.14966,-19.59184 -5.28798,-5.28797 -6.52392,-8.6941 -9.79592,-15.23809 -3.48555,-6.97109 -7.15976,-13.69037 -11.97279,-18.50341 -6.87095,-6.87094 -12.6097,-20.86565 -16.32653,-28.29932 -3.91181,-7.82361 -5.82473,-13.06122 -15.2381,-13.06122 -10.30554,0 -12.22687,4.48079 -20.68027,8.70748 -7.11185,3.55593 -8.70748,6.94617 -8.70748,15.2381 0,8.30255 0.71706,15.55811 2.17687,22.85714 1.20233,6.01164 6.8217,11.46653 8.70748,15.2381 3.67693,7.35386 4.13175,11.10635 0,15.23809 -4.9924,4.9924 -12.32945,8.52454 -17.41497,9.79592"
       id="path2473" />
    <path
       style="fill:none;stroke:#000000;stroke-width:2;stroke-linecap:butt;stroke-linejoin:miter;stroke-opacity:1;stroke-miterlimit:4;stroke-dasharray:none"
       d="m 218.77551,425.18293 c -3.34788,-3.62993 -4.83287,-14.80328 -7.61904,-21.76871 -3.18492,-7.9623 -8.28841,-15.55241 0,-21.76871 8.22011,-6.16508 13.31244,-11.25277 21.7687,-16.32653 7.02154,-4.21292 4.73995,-10.25232 6.53062,-17.41497 2.3768,-9.50721 3.16368,-19.18534 5.44217,-28.29932 1.31597,-5.26387 6.5308,-15.23823 10.88436,-18.5034 5.94638,-4.45979 9.01808,-8.70748 17.41496,-8.70748 8.23391,0 15.5743,11.14074 17.41497,18.5034 2.337,9.34799 2.17687,18.34435 2.17687,28.29932 0,9.069 5.94124,16.82559 10.88435,21.76871 6.05425,6.05425 15.13257,8.08412 21.76871,13.06122 4.21076,3.15807 3.26531,14.47798 3.26531,19.59184 0,8.55208 -4.59821,12.03973 -7.61905,19.59184 -3.31403,8.28508 1.91286,32.94947 4.35374,40.27211 3.08987,9.26961 -1.94029,14.76494 -5.44218,21.7687 -3.0368,6.07362 -7.02168,10.77807 -9.79591,16.32653 -2.28235,4.5647 -2.17687,13.69035 -2.17687,15.2381"
       id="path2488" />
    <path
       style="fill:none;stroke:#000000;stroke-width:2;stroke-linecap:butt;stroke-linejoin:miter;stroke-opacity:1;stroke-miterlimit:4;stroke-dasharray:none"
       d="m 325.44218,383.82238 c -0.71615,-5.8534 0.33944,-18.84284 6.53061,-25.03401 7.04355,-7.04355 4.45986,-9.27823 15.2381,-11.97279 6.29534,-1.57384 9.70969,-4.18129 13.06122,-10.88436 3.1575,-6.315 -0.036,-13.10927 -3.2653,-17.41496 -3.88482,-5.17975 -7.61905,-3.07899 -7.61905,-14.14966 0,-7.09678 2.17687,-10.64388 2.17687,-17.41497 0,-7.49114 7.87336,-9.24458 11.97279,-10.88435 5.65255,-2.26102 9.18355,-4.20065 14.14966,-5.44218 7.96567,-1.99142 13.6998,0.75104 18.5034,4.35374 4.57474,3.43106 7.66062,12.18064 8.70748,17.41497 1.64988,8.24938 4.27825,14.45163 2.17687,22.85714 -1.78201,7.12804 -9.09722,11.35489 -10.88435,18.5034 -2.02562,8.10247 9.89933,11.48028 15.2381,14.14966 7.51023,3.75512 11.51338,7.15964 16.32653,11.97279 4.58853,4.58854 7.40912,8.28764 10.88435,15.2381 2.05402,4.10804 -1.08844,14.68091 -1.08844,19.59184 0,7.61385 -1.08843,14.62231 -1.08843,21.7687 0,0.9911 -12.30103,-0.3801 -17.41497,2.17687"
       id="path2492"
       sodipodi:nodetypes="cssssssssssssssssss" />
    <path
       style="fill:none;stroke:#000000;stroke-width:2;stroke-linecap:butt;stroke-linejoin:miter;stroke-opacity:1;stroke-miterlimit:4;stroke-dasharray:none"
       d="m 438.63946,374.02646 c -0.76532,3.06129 2.59411,-13.88118 14.14966,-18.5034 7.61001,-3.044 15.05751,-7.75572 20.68027,-11.97279 C 479.09682,339.3297 480,334.29132 480,326.13531 c 0,-7.69679 -3.13401,-11.64456 -5.44217,-17.41497 -2.61389,-6.53472 -2.48255,-13.7097 -1.08844,-20.68027 1.5543,-7.7715 10.79849,-11.38564 16.32653,-14.14966 4.29944,-2.14972 15.07624,-2.36219 19.59184,-3.26531 8.30201,-1.6604 12.56794,9.89779 15.23809,15.2381 3.40019,6.80036 3.26531,15.08745 3.26531,22.85714 0,6.6369 -4.92706,15.29629 -7.61905,20.68027 -4.56515,9.13031 4.78198,10.01004 10.88436,13.06123 8.10718,4.05359 18.0342,9.53313 23.94557,17.41496 5.12828,6.8377 9.33423,17.08487 7.61905,23.94558 -1.41633,5.66532 0,13.71241 0,19.59184 0,9.60277 3.17434,21.40485 5.44218,30.47619 1.57772,6.31088 0,15.2633 0,21.76871 0,6.34697 0.52185,9.57971 0,10.88435"
       id="path2494" />
    <path
       style="fill:none;stroke:#000000;stroke-width:2;stroke-linecap:butt;stroke-linejoin:miter;stroke-opacity:1;stroke-miterlimit:4;stroke-dasharray:none"
       d="m 563.80953,392.52986 c 0,4.33705 -4.10177,-21.31019 2.17687,-37.0068 3.87876,-9.69691 5.8552,-12.72352 15.23809,-17.41496 6.56824,-3.28412 11.72588,-4.10684 16.32653,-8.70749 5.71319,-5.71318 2.27666,-12.56229 1.08844,-18.5034 -1.40108,-7.00541 -2.17687,-13.72515 -2.17687,-21.76871 0,-8.82502 3.73318,-12.44066 8.70748,-17.41496 4.55056,-4.55056 7.91343,-6.53061 17.41497,-6.53061 8.08417,0 11.58779,3.0728 18.5034,6.53061 9.37955,4.68977 10.88435,13.9537 10.88435,25.03401 0,6.39938 -5.7979,15.7124 -8.70748,19.59184 -3.67918,4.90558 -2.11801,13.29666 -1.08844,17.41496 1.47954,5.91814 11.72781,10.70062 16.32654,14.14966 7.0975,5.32313 10.36128,8.01006 17.41496,17.41497 5.24572,6.99429 6.53061,17.3961 6.53061,26.12245 0,9.30982 1.08844,19.6539 1.08844,29.38775 0,7.25624 0,14.51248 0,21.76871"
       id="path2496" />
    <path
       style="fill:none;stroke:#000000;stroke-width:2;stroke-linecap:butt;stroke-linejoin:miter;stroke-opacity:1;stroke-miterlimit:4;stroke-dasharray:none"
       d="m 645.44218,334.84279 c 0,8.41536 1.22428,-16.86992 3.26531,-25.03401 2.56294,-10.25177 6.48091,-15.42597 15.23809,-20.68028 6.39355,-3.83612 13.21636,-5.59731 17.41497,-9.79591 3.67107,-3.67108 -3.71095,-15.28946 -4.35374,-18.50341 -1.33597,-6.67984 -1.08844,-13.65116 -1.08844,-20.68027 0,-8.4839 -0.43204,-13.71762 4.35374,-18.5034 5.28388,-5.28388 7.26993,-5.44218 15.2381,-5.44218 5.54891,0 12.28759,-1.08843 18.5034,-1.08843 5.93587,0 9.11412,2.99014 11.97279,8.70748 3.81489,7.62978 5.44218,12.49471 5.44218,21.76871 0,9.26883 -2.37845,15.64123 -5.44218,21.76871 -3.95313,7.90625 -0.6774,10.70677 4.35374,17.41496 5.39314,7.19086 12.98698,8.97131 18.5034,16.32653 6.30111,8.40148 9.77583,18.46323 14.14966,27.21089 2.62692,5.25383 1.08844,15.85394 1.08844,22.85714 0,8.26619 1.28703,18.1062 -2.17687,25.03401 -3.38111,6.76222 1.93999,14.05371 3.2653,20.68028 1.69899,8.49492 3.26531,14.83972 3.26531,23.94557 0,4.21773 -2.92143,11.28503 -4.35374,14.14966"
       id="path2498" />
    <path
       style="fill:none;stroke:#000000;stroke-width:2;stroke-linecap:butt;stroke-linejoin:miter;stroke-opacity:1;stroke-miterlimit:4;stroke-dasharray:none"
       d="m 746.66667,296.74755 c 0,11.39252 1.2111,-23.1638 5.44218,-33.7415 2.11266,-5.28165 6.69855,-11.19844 14.14966,-13.06122 4.82639,-1.2066 13.47345,-5.64829 17.41496,-7.61905 6.93109,-3.46554 -2.9554,-14.92819 -4.35374,-16.32653 -3.17404,-3.17404 -1.08843,-15.283 -1.08843,-19.59183 0,-7.64395 0.68127,-12.31343 6.53061,-15.2381 4.67113,-2.33556 10.37984,-4.35374 16.32653,-4.35374 7.30217,0 14.41269,0.10521 19.59184,2.17687 7.71577,3.08631 7.27336,10.24435 8.70748,17.41497 1.39721,6.98602 -2.17687,15.01934 -2.17687,21.7687 0,10.02248 -9.51563,3.5456 1.08843,14.14966 5.9131,5.9131 11.06182,6.88554 15.2381,15.2381 4.50224,9.00448 6.36679,18.17576 10.88435,27.21088 3.87366,7.74733 1.74745,14.77894 0,21.76871 -2.35972,9.43888 -1.08843,20.59153 -1.08843,30.47619 0,8.32225 -0.0142,18.41841 1.08843,25.03401 1.6056,9.63358 0.88101,17.82983 -3.2653,26.12245 -1.46029,2.92058 -0.79196,6.62811 0,9.79592"
       id="path2500" />
    <path
       style="fill:none;stroke:#000000;stroke-width:2;stroke-linecap:butt;stroke-linejoin:miter;stroke-opacity:1;stroke-miterlimit:4;stroke-dasharray:none"
       d="m 911.02041,419.74075 c -5.36093,10.72187 -0.77142,-15.66078 5.44218,-23.94558 4.26832,-5.69109 14.13118,-7.33308 17.41497,-9.79592 1.85407,-1.39055 -4.79334,-17.20571 -5.44218,-18.5034 -2.59087,-5.18173 0.9888,-17.01644 2.17687,-21.76871 1.98501,-7.94004 5.68337,-14.60266 10.88435,-18.5034 2.98109,-2.23582 14.47592,-3.2653 18.5034,-3.2653 8.79716,0 11.12946,6.4946 15.2381,11.97278 4.92014,6.56019 7.26672,12.03573 8.70748,20.68028 1.69796,10.18772 1.98938,19.18824 -4.35374,23.94558 -5.01836,3.76376 -2.54116,8.33875 -1.08843,14.14966 0.80159,3.20636 20.25818,13.07783 22.85719,16.32653 5.8855,7.35694 10.8843,14.04131 10.8843,23.94557 0,3.98365 4.3537,6.86909 4.3537,14.14966 0,7.58271 -0.6317,15.9764 1.0885,22.85715 1.9874,7.94954 -2.1769,10.66206 -2.1769,18.5034 0,8.10224 5.3923,13.26064 3.2653,21.76871 -1.4996,5.99861 -17.5945,5.69577 -21.76869,6.53061 -0.71154,0.1423 -1.45125,0 -2.17687,0 -7.11025,0 -10.07528,3.12562 -16.32653,0"
       id="path2502" />
    <path
       style="fill:none;stroke:#000000;stroke-width:2;stroke-linecap:butt;stroke-linejoin:miter;stroke-opacity:1;stroke-miterlimit:4;stroke-dasharray:none"
       d="m 244.89796,295.65912 c -1.64632,0 6.37087,-15.36806 8.70749,-29.38776 1.62003,-9.72019 -0.43965,-15.56249 9.79591,-20.68027 4.95291,-2.47645 11.41582,-3.39817 15.2381,-4.35374 4.04742,-1.01186 2.17687,-17.52997 2.17687,-20.68027 0,-7.60718 -0.71446,-15.64557 1.08844,-22.85715 1.6029,-6.41161 4.37937,-12.02404 6.53061,-16.32653 2.99819,-5.99637 16.84961,-6.00753 19.59184,-3.2653 1.08843,1.08843 2.17687,2.17687 3.2653,3.2653 8.01063,8.01063 4.45185,23.15148 7.61905,32.65306 2.54471,7.63412 1.28195,13.25474 6.53061,18.5034 5.55482,5.55483 12.88319,7.44101 19.59184,14.14966 7.57175,7.57175 9.79592,16.31441 9.79592,27.21089 0,7.14859 -3.14061,11.474 -4.35375,16.32653"
       id="path2504" />
    <path
       style="fill:none;stroke:#000000;stroke-width:2;stroke-linecap:butt;stroke-linejoin:miter;stroke-opacity:1;stroke-miterlimit:4;stroke-dasharray:none"
       d="m 354.82994,272.80197 c 0,7.81521 4.01836,-15.51654 8.70748,-21.7687 3.39626,-4.52836 12.85322,-6.42661 17.41497,-8.70749 8.53046,-4.26523 9.8281,-7.74778 11.97278,-16.32653 0.69739,-2.78955 -8.21805,-10.205 -9.79591,-14.14966 -2.63845,-6.5961 -2.17687,-14.03758 -2.17687,-21.76871 0,-6.16775 10.69625,-15.04999 14.14965,-18.5034 3.91584,-3.91584 14.2676,-4.35374 20.68028,-4.35374 9.05602,0 11.51881,12.33377 13.06122,18.5034 1.97776,7.91104 0.26038,16.27959 2.17687,23.94558 1.60169,6.40677 -1.84972,13.49537 -4.35374,18.5034 -4.39846,8.79693 7.07705,12.24601 13.06123,15.2381 10.60955,5.30478 14.67553,13.5871 21.7687,20.68027 6.61565,6.61565 5.65312,16.7484 9.79592,25.03401 3.63496,7.26993 -8.15971,11.96568 -10.88435,17.41497 -2.4945,4.98899 -1.08844,17.14392 -1.08844,22.85714 0,6.28267 -3.2653,9.10881 -3.2653,16.32653 0,0.81128 0.72562,1.45125 1.08843,2.17687"
       id="path2506" />
    <path
       style="fill:none;stroke:#000000;stroke-width:2;stroke-linecap:butt;stroke-linejoin:miter;stroke-opacity:1;stroke-miterlimit:4;stroke-dasharray:none"
       d="m 436.46259,205.31898 c 0,0.21968 11.79136,-14.51236 15.23809,-28.29932 1.83249,-7.32996 1.08844,-15.25236 1.08844,-22.85714 0,-9.28537 1.08844,-18.02155 1.08844,-27.21089 0,-9.48287 -1.25766,-13.81122 3.2653,-22.85714 1.45125,-2.9025 6.41286,-2.05912 8.70748,-4.353743 4.26513,-4.26513 -4.67956,-17.74079 -6.53061,-19.59184 -4.22333,-4.22333 -2.17687,-14.8644 -2.17687,-20.680273 0,-8.301447 6.71169,-15.419167 11.97279,-20.680272 6.59324,-6.593238 15.06484,-6.530613 23.94558,-6.530613 9.95329,0 15.19619,6.446796 19.59184,15.238096 3.68707,7.374145 4.57377,13.941372 6.53061,21.768712 2.70732,10.82929 0.119,17.17695 -4.35374,26.12244 -3.68133,7.362663 3.04211,13.256883 4.35374,18.503413 2.01466,8.05865 7.99458,14.93889 9.79592,23.94558 2.28437,11.42187 -0.0792,15.71344 -2.17687,28.29932 -1.50684,9.04102 -4.35375,14.78511 -4.35375,25.03401 0,7.98186 0,15.96372 0,23.94558 0,8.80486 4.09345,13.7711 -1.08843,20.68027 -6.69203,8.9227 5.45705,12.51329 -9.79592,16.32653 -8.05717,2.01429 -14.51904,3.26925 -21.76871,7.61905 -3.79185,2.27511 -4.35374,9.38424 -4.35374,14.14966 0,0.36281 0,0.72562 0,1.08843"
       id="path2508" />
    <path
       style="fill:none;stroke:#000000;stroke-width:2;stroke-linecap:butt;stroke-linejoin:miter;stroke-opacity:1;stroke-miterlimit:4;stroke-dasharray:none"
       d="m 518.09524,251.03327 c 0,6.33407 10.88436,-6.52291 10.88436,-19.59184 0,-8.71378 -4.50031,-16.03341 0,-25.03401 4.18255,-8.36512 6.22586,-19.37418 9.79591,-28.29932 2.93472,-7.33679 4.35375,-8.8113 4.35375,-17.41497 0,-6.66152 1.08843,-15.46669 1.08843,-22.85714 0,-7.96099 0.40255,-14.6714 2.17687,-21.76871 1.57246,-6.28982 8.36063,-15.2381 15.2381,-15.2381 9.0338,0 15.17131,-0.37394 23.94558,1.08844 11.15926,1.85987 17.41496,20.45934 17.41496,30.47619 0,9.82469 3.26531,20.92485 3.26531,31.56463 0,7.15262 5.22745,12.63178 7.61905,17.41496 2.86349,5.72699 3.2653,14.31885 3.2653,20.68027 0,9.58193 1.19684,20.24666 -1.08843,29.38776 -1.83756,7.35024 -8.98446,10.90381 -10.88436,18.5034 -1.00454,4.01817 2.22821,13.89298 1.08844,19.59184"
       id="path2510"
       sodipodi:nodetypes="csssssssssssssss" />
    <path
       style="fill:none;stroke:#000000;stroke-width:2;stroke-linecap:butt;stroke-linejoin:miter;stroke-opacity:1;stroke-miterlimit:4;stroke-dasharray:none"
       d="m 617.41497,220.82919 c 2.71846,-10.87382 5.17007,-6.06638 5.17007,-18.77552 0,-10.66419 1.34083,-15.23809 10.88435,-15.23809 7.62997,0 11.48664,-4.95603 15.2381,-8.70748 1.0758,-1.07581 -7.13151,-16.55326 -7.61905,-18.50341 C 639.24595,152.23472 640,143.62989 640,135.65912 c 0,-8.5588 1.42088,-14.39099 3.26531,-21.76871 1.37248,-5.48991 15.73587,-9.02473 19.59184,-9.79592 5.2696,-1.05392 12.80913,-0.063 17.41496,1.08843 7.30889,1.82723 13.87817,19.59432 15.2381,25.03402 2.2636,9.05442 1.08843,19.89064 1.08843,29.38775 0,5.65195 0.0763,12.27798 1.08844,16.32653 0.53824,2.15296 17.4101,9.52016 20.68027,11.97279 9.26571,6.94929 15.28627,15.47895 17.41497,26.12245 1.88695,9.43475 7.12202,22.1588 10.88435,31.56463 2.96747,7.41866 3.26531,13.52741 3.26531,21.76871 0,6.89342 0,13.78684 0,20.68027"
       id="path2512"
       sodipodi:nodetypes="csssssssssssssssc" />
    <path
       style="fill:none;stroke:#000000;stroke-width:2;stroke-linecap:butt;stroke-linejoin:miter;stroke-opacity:1;stroke-miterlimit:4;stroke-dasharray:none"
       d="m 739.04762,214.02646 c 0,8.53958 5.44218,-16.49444 5.44218,-25.03401 0,-7.98186 0,-15.96372 0,-23.94558 0,-7.0933 1.58827,-15.06054 3.26531,-21.76871 1.98401,-7.93606 7.61904,-8.86329 7.61904,-18.5034 0,-8.27695 3.26531,-16.29045 3.26531,-25.034013 0,-7.06814 4.99554,-14.53999 6.53061,-20.68028 1.82936,-7.31741 6.26246,-11.97279 13.06123,-11.97279 7.622,0 14.89594,-0.13686 20.68027,2.17688 8.9431,3.57723 12.2441,14.87421 17.41496,21.7687 4.28611,5.71481 10.29788,18.334373 11.97279,25.034023 1.40953,5.63812 8.08742,15.08639 10.88436,20.68027 4.54784,9.09568 9.9885,16.80798 14.14966,27.21089 2.70578,6.76444 1.08843,16.66475 1.08843,23.94557 0,10.44746 -1.27489,25.74954 3.26531,34.82994 2.39332,4.78664 1.08843,12.83884 1.08843,18.5034 0,10.11499 9.47277,16.97284 4.35375,27.21088 -4.16987,8.33973 -8.70749,12.37561 -8.70749,20.68027 0,4.35375 0,8.70749 0,13.06123"
       id="path2514" />
    <path
       style="fill:none;stroke:#000000;stroke-width:2;stroke-linecap:butt;stroke-linejoin:miter;stroke-opacity:1;stroke-miterlimit:4;stroke-dasharray:none"
       d="m 862.04082,350.08088 c 0,7.26531 1.20905,-14.87623 -1.08843,-21.7687 -5.00707,-15.02121 -10.88436,-26.6353 -10.88436,-42.44898 0,-14.42412 1.0526,-31.45712 5.44218,-44.62585 3.22372,-9.67118 2.71607,-20.13104 9.79592,-27.21089 5.12472,-5.12472 13.28496,-2.74648 19.59183,-6.53061 5.38044,-3.22826 2.43212,-11.4623 1.08844,-14.14966 -3.18378,-6.36756 -4.41898,-10.50323 -7.61905,-18.5034 -2.64867,-6.62168 0.90566,-17.77229 2.17687,-22.85714 1.488,-5.95199 8.69965,-6.53062 15.2381,-6.53062 9.99498,0 7.43595,-3.4484 15.23809,4.35375 5.89198,5.89197 7.47683,14.68566 11.97279,20.68027 4.44181,5.92241 1.83082,19.1955 0,22.85714 -3.54652,7.09304 -2.69001,11.04372 4.35374,16.32653 9.273,6.95475 12.51362,10.15421 19.59184,19.59184 6.64605,8.8614 7.61905,19.40425 7.61905,30.47619 0,12.72613 2.17687,24.5279 2.17687,37.0068 0,7.25624 0,14.51247 0,21.76871"
       id="path2516" />
    <path
       style="fill:none;stroke:#000000;stroke-width:2;stroke-linecap:butt;stroke-linejoin:miter;stroke-opacity:1;stroke-miterlimit:4;stroke-dasharray:none"
       d="m 877.27892,449.1285 c 0,6.51774 2.17687,-17.38896 2.17687,-31.56462 0,-11.41297 -1.08844,-23.1707 -1.08844,-34.82993 0,-7.31892 -5.08833,-13.79582 -8.70748,-17.41497 -6.48171,-6.4817 -7.60378,-2.10053 -9.79592,-13.06122 -0.68302,-3.41508 0.60271,-3.01358 1.08844,-5.44218"
       id="path2518" />
    <path
       style="fill:none;stroke:#000000;stroke-width:2;stroke-linecap:butt;stroke-linejoin:miter;stroke-opacity:1;stroke-miterlimit:4;stroke-dasharray:none"
       d="m 71.836735,378.3802 c 10.884354,28.29932 9.795918,26.12245 9.795918,26.12245"
       id="path2408" />
  </g>
</svg>
