<?xml version="1.0" encoding="utf-8"?>
<!-- Generator: Adobe Illustrator 16.0.0, SVG Export Plug-In . SVG Version: 6.00 Build 0)  -->
<!DOCTYPE svg PUBLIC "-//W3C//DTD SVG 1.1//EN" "http://www.w3.org/Graphics/SVG/1.1/DTD/svg11.dtd">
<svg version="1.1" id="Layer_1" xmlns="http://www.w3.org/2000/svg" xmlns:xlink="http://www.w3.org/1999/xlink" x="0px" y="0px"
	 width="208.969px" height="211.203px" viewBox="0 0 208.969 211.203" enable-background="new 0 0 208.969 211.203"
	 xml:space="preserve">
<g>
	<defs>
		<circle id="SVGID_1_" cx="103.367" cy="105.601" r="103.367"/>
	</defs>
	<clipPath id="SVGID_2_">
		<use xlink:href="#SVGID_1_"  overflow="visible"/>
	</clipPath>
	<path clip-path="url(#SVGID_2_)" fill="#ACA9A8" d="M142.042,45.145c0-21.359-17.315-38.675-38.675-38.675
		c-21.36,0-38.675,17.316-38.675,38.675c0,3.958,0.597,7.777,1.702,11.374h-0.001c0,0,12.493,45.527,34.965,48.897
		c0.661,0.099,1.33,0.162,2.009,0.186c23.735,0.838,34.769-41.717,36.314-47.12h-0.002
		C141.208,54.323,142.042,49.832,142.042,45.145z"/>
	<path clip-path="url(#SVGID_2_)" fill="#ACA9A8" d="M148.884,108.417c0,0,68.035,10.408,48.448,100.552l-99.491,2.71
		C97.841,211.679,155.307,143.322,148.884,108.417z"/>
	<path clip-path="url(#SVGID_2_)" fill="#ACA9A8" d="M50.66,108.417c0,0-66.417,9.015-50.66,100.552l104.031,2.71
		C104.031,211.679,43.944,143.322,50.66,108.417z"/>
	<polygon clip-path="url(#SVGID_2_)" fill="#ACA9A8" points="94.714,114.297 108.397,114.745 115.377,172.458 101.974,195.455 
		88.571,172.817 	"/>
</g>
<path fill="#ACA9A8" d="M103.368,211.203c-58.229,0-105.601-47.373-105.601-105.602S45.139,0,103.368,0
	c58.229,0,105.602,47.372,105.602,105.601S161.596,211.203,103.368,211.203z M103.368,4.468
	C47.603,4.468,2.234,49.836,2.234,105.601s45.368,101.133,101.133,101.133c55.765,0,101.134-45.368,101.134-101.133
	S159.132,4.468,103.368,4.468z"/>
</svg>
